<svg xmlns="http://www.w3.org/2000/svg" fill="none" viewBox="0 0 24 24"><g clip-path="url(#a)"><path fill="#E9BB04" d="m9.617 14.219-1.665 3.75-1.507 3.21c.028-.074 1.672-1.525 1.698-1.598l.157-.168c.11-.292.19-.219.277-.452.224-.607.758-1.754 1.04-2.297.28-.552.595-1.065.943-1.538a5.738 5.738 0 0 1 1.183-1.207c.442-.33.942-.529 1.501-.595.161-.019.285.015.372.1a.498.498 0 0 1 .154.328c.02.162.004.317-.045.467-.042.14-.11.296-.204.47-.166.386-.364.784-.594 1.195-.232.402-.446.822-.645 1.258-.19.426-.344.867-.463 1.323-.111.446-.138.91-.08 1.394.077.663.339 1.127.783 1.392.444.255 1.002.343 1.675.263a4.826 4.826 0 0 0 1.558-.472 9.246 9.246 0 0 0 1.559-.962 15.652 15.652 0 0 0 1.503-1.302c.491-.48.97-.98 1.438-1.496.302-.295.504-.578.606-.85.112-.272.156-.508.133-.707-.026-.218-.107-.381-.245-.49a.542.542 0 0 0-.45-.149.733.733 0 0 0-.264.089.93.93 0 0 0-.25.202c-.143.171-.316.374-.519.61-.204.225-.43.464-.68.714-.239.25-.498.496-.777.74a10.2 10.2 0 0 1-.828.675 6.063 6.063 0 0 1-.835.502c-.282.13-.445.205-.7.263-.195.045-.382.08-.613-.036-.186-.093-.25-.227-.254-.453.008-.02.003.019 0 0a3.21 3.21 0 0 1 .188-1.082c.123-.341.271-.67.445-.99.182-.328.375-.649.579-.961.202-.322.384-.65.546-.987a5.23 5.23 0 0 0 .364-1.066c.09-.376.11-.777.06-1.204-.038-.322-.131-.585-.28-.788a1.342 1.342 0 0 0-.56-.468 2.162 2.162 0 0 0-.758-.198 4.295 4.295 0 0 0-.878.017 4.08 4.08 0 0 0-1.366.392 5.21 5.21 0 0 0-1.086.69 7.746 7.746 0 0 0-.892.87c-.177.209-1.159 1.402-1.324 1.602Z"/><g filter="url(#b)"><path fill="#FC0" d="m8.513 19.237-3.75-1.276 5.9-15.28a.25.25 0 0 1 .313-.147l2.001.683a.25.25 0 0 1 .16.307L8.512 19.237ZM4.912 21.56l.293-.745.627.197.614.229-.118.318-1.416.001Z"/><path fill="#FAFAFA" d="m6.641 18.58 1.858.637-2.058 2.02-.653-.228-.589-.195-.43-2.87 1.872.637Z"/></g><path fill="#000" fill-opacity=".03" d="M6.695 18.605 12.02 2.887l-1.27-.43-5.984 15.496 1.93.652Z"/></g><defs><clipPath id="a"><path fill="#fff" d="M24 24H0V0h24z"/></clipPath><filter id="b" width="16.384" height="27.04" x="1.003" y="-1.479" color-interpolation-filters="sRGB" filterUnits="userSpaceOnUse"><feFlood flood-opacity="0" result="BackgroundImageFix"/><feColorMatrix in="SourceAlpha" result="hardAlpha" type="matrix" values="0 0 0 0 0 0 0 0 0 0 0 0 0 0 0 0 0 0 127 0"/><feOffset dx=".24"/><feGaussianBlur stdDeviation="2"/><feComposite in2="hardAlpha" operator="out"/><feColorMatrix type="matrix" values="0 0 0 0 0 0 0 0 0 0 0 0 0 0 0 0 0 0 0.25 0"/><feBlend in2="BackgroundImageFix" mode="normal" result="effect1_dropShadow_706_23"/><feBlend in="SourceGraphic" in2="effect1_dropShadow_706_23" mode="normal" result="shape"/></filter></defs></svg>