<svg xmlns="http://www.w3.org/2000/svg" fill="none" viewBox="0 0 24 24"><g clip-path="url(#a)"><path fill="#E9BB04" d="m9.62 14.22-1.67 3.75s.54 1.22.63 1c.22-.62.76-1.76 1.04-2.3.28-.56.6-1.07.94-1.54.35-.48.74-.88 1.18-1.21.45-.33.95-.53 1.5-.6.17-.01.29.02.38.1a.5.5 0 0 1 .15.33c.02.16 0 .32-.04.47a13.04 13.04 0 0 1-.8 1.67 8.7 8.7 0 0 0-1.11 2.58c-.11.44-.14.9-.08 1.39.08.66.34 1.13.78 1.4.45.25 1 .33 1.68.25a4.83 4.83 0 0 0 1.56-.47 9.25 9.25 0 0 0 1.55-.96c.52-.39 1.02-.82 1.5-1.3.5-.48.98-.98 1.45-1.5.3-.3.5-.58.6-.85.11-.27.16-.5.13-.7a.7.7 0 0 0-.24-.5.54.54 0 0 0-.45-.14.73.73 0 0 0-.26.09.93.93 0 0 0-.25.2l-.52.6a20.4 20.4 0 0 1-2.29 2.14 5.54 5.54 0 0 1-1.53.76c-.2.05-.39.08-.62-.04-.18-.09-.25-.22-.25-.45 0-.02 0 .02 0 0 0-.38.07-.74.19-1.08.12-.34.27-.67.44-.99.18-.33.38-.65.58-.96.2-.32.39-.65.55-.99.16-.34.28-.7.36-1.06.1-.38.11-.78.06-1.2a1.64 1.64 0 0 0-.28-.8 1.34 1.34 0 0 0-.56-.46 2.03 2.03 0 0 0-.76-.2 4.3 4.3 0 0 0-2.24.4 5.8 5.8 0 0 0-1.98 1.57c-.18.2-1.16 1.4-1.32 1.6Z"/><g filter="url(#b)"><path fill="#FC0" d="m8.51 19.24-3.75-1.28 5.9-15.28a.25.25 0 0 1 .32-.15l2 .69c.12.04.2.17.16.3L8.5 19.24ZM5 21.35l.41-1.08c.03-.07.1-.1.17-.1l1 .22c.09.02.14.12.1.2l-.32.87a.15.15 0 0 1-.14.1H5.13c-.1 0-.18-.1-.14-.2Z"/><path fill="#FFF0B3" d="m4.76 17.96 3.75 1.27-1.98 1.78-1.24-.42-.53-2.63Z"/><path fill="#000" fill-opacity=".03" d="m6.7 18.6 5.32-15.7-1.27-.43-5.98 15.5 1.93.64Z"/></g></g><defs><clipPath id="a"><path fill="#fff" d="M24 24H0V0h24z"/></clipPath><filter id="b" width="16.39" height="27.1" x="1" y="-1.54" color-interpolation-filters="sRGB" filterUnits="userSpaceOnUse"><feFlood flood-opacity="0" result="BackgroundImageFix"/><feColorMatrix in="SourceAlpha" result="hardAlpha" values="0 0 0 0 0 0 0 0 0 0 0 0 0 0 0 0 0 0 127 0"/><feOffset dx=".24"/><feGaussianBlur stdDeviation="2"/><feComposite in2="hardAlpha" operator="out"/><feColorMatrix values="0 0 0 0 0 0 0 0 0 0 0 0 0 0 0 0 0 0 0.25 0"/><feBlend in2="BackgroundImageFix" result="effect1_dropShadow_0_1"/><feBlend in="SourceGraphic" in2="effect1_dropShadow_0_1" result="shape"/></filter></defs></svg>