<svg width="15" height="12" viewBox="0 0 19 21" xmlns="http://www.w3.org/2000/svg">
<path d="M3.5 21C2.85834 21 2.30884 20.7713 1.8515 20.314C1.39417 19.8567 1.16589 19.3076 1.16667 18.6667V3.5C0.836115 3.5 0.558837 3.388 0.334837 3.164C0.110838 2.94 -0.000773741 2.66311 4.0369e-06 2.33334C4.0369e-06 2.00278 0.112004 1.7255 0.336004 1.5015C0.560004 1.2775 0.836893 1.16589 1.16667 1.16667H5.83334C5.83334 0.836115 5.94534 0.558837 6.16934 0.334837C6.39334 0.110837 6.67022 -0.000773741 7 4.03691e-06H11.6667C11.9972 4.03691e-06 12.2745 0.112004 12.4985 0.336004C12.7225 0.560004 12.8341 0.836893 12.8333 1.16667H17.5C17.8306 1.16667 18.1078 1.27867 18.3318 1.50267C18.5558 1.72667 18.6674 2.00356 18.6667 2.33334C18.6667 2.66389 18.5547 2.94117 18.3307 3.16517C18.1067 3.38917 17.8298 3.50078 17.5 3.5V18.6667C17.5 19.3083 17.2713 19.8578 16.814 20.3152C16.3567 20.7725 15.8076 21.0008 15.1667 21H3.5ZM3.5 3.5V18.6667H15.1667V3.5H3.5ZM5.83334 15.1667C5.83334 15.4972 5.94534 15.7745 6.16934 15.9985C6.39334 16.2225 6.67022 16.3341 7 16.3333C7.33056 16.3333 7.60784 16.2213 7.83184 15.9973C8.05584 15.7733 8.16745 15.4964 8.16667 15.1667V7C8.16667 6.66945 8.05467 6.39217 7.83067 6.16817C7.60667 5.94417 7.32978 5.83256 7 5.83334C6.66945 5.83334 6.39217 5.94534 6.16817 6.16934C5.94417 6.39334 5.83256 6.67022 5.83334 7V15.1667ZM10.5 15.1667C10.5 15.4972 10.612 15.7745 10.836 15.9985C11.06 16.2225 11.3369 16.3341 11.6667 16.3333C11.9972 16.3333 12.2745 16.2213 12.4985 15.9973C12.7225 15.7733 12.8341 15.4964 12.8333 15.1667V7C12.8333 6.66945 12.7213 6.39217 12.4973 6.16817C12.2733 5.94417 11.9964 5.83256 11.6667 5.83334C11.3361 5.83334 11.0588 5.94534 10.8348 6.16934C10.6108 6.39334 10.4992 6.67022 10.5 7V15.1667Z"/>
</svg>
