<svg width="20" height="24" viewBox="0 0 20 24" fill="none" xmlns="http://www.w3.org/2000/svg">
<path d="M2.35294 23.5897C1.70588 23.5897 1.15177 23.3586 0.69059 22.8962C0.229414 22.4338 -0.000782316 21.8787 1.9974e-06 21.2308V5.89744C1.9974e-06 5.56325 0.112943 5.28292 0.338826 5.05646C0.564708 4.83 0.843923 4.71716 1.17647 4.71795C1.50981 4.71795 1.78941 4.83118 2.0153 5.05764C2.24118 5.2841 2.35373 5.56403 2.35294 5.89744V21.2308H14.1176C14.451 21.2308 14.7306 21.344 14.9565 21.5705C15.1824 21.7969 15.2949 22.0768 15.2941 22.4102C15.2941 22.7444 15.1812 23.0248 14.9553 23.2512C14.7294 23.4777 14.4502 23.5905 14.1176 23.5897H2.35294ZM7.05882 18.8718C6.41177 18.8718 5.85765 18.6406 5.39647 18.1783C4.9353 17.7159 4.7051 17.1607 4.70588 16.5128V2.35898C4.70588 1.71026 4.93647 1.15472 5.39765 0.692361C5.85882 0.230002 6.41255 -0.000784322 7.05882 2.00253e-06H17.6471C18.2941 2.00253e-06 18.8482 0.231181 19.3094 0.69354C19.7706 1.1559 20.0008 1.71104 20 2.35898V16.5128C20 17.1615 19.7694 17.7171 19.3082 18.1794C18.8471 18.6418 18.2933 18.8726 17.6471 18.8718H7.05882ZM7.05882 16.5128H17.6471V2.35898H7.05882V16.5128Z" fill="#CACACA"/>
</svg>
