<svg width="14" height="18" viewBox="0 0 14 18" fill="none" xmlns="http://www.w3.org/2000/svg">
<path d="M6.84783 12.1599C6.6053 12.1599 6.40186 12.0798 6.23751 11.9196C6.07316 11.7594 5.99128 11.5614 5.99185 11.3256V2.83662L5.22147 3.58749C5.06454 3.74044 4.86823 3.81692 4.63255 3.81692C4.39687 3.81692 4.19372 3.73349 4.0231 3.56663C3.86617 3.39977 3.7877 3.20148 3.7877 2.97177C3.7877 2.74206 3.86617 2.55101 4.0231 2.39861L6.24864 0.229432C6.31997 0.159907 6.40928 0.104287 6.51656 0.0625725C6.62384 0.0208575 6.73427 0 6.84783 0C6.96196 0 7.07266 0.0208575 7.17994 0.0625725C7.28723 0.104287 7.37625 0.159907 7.44701 0.229432L9.67255 2.39861C9.84375 2.56547 9.92935 2.76709 9.92935 3.00348C9.92935 3.23986 9.84375 3.43453 9.67255 3.58749C9.50136 3.74044 9.29792 3.81692 9.06224 3.81692C8.82656 3.81692 8.63054 3.74044 8.47418 3.58749L7.7038 2.83662V11.3256C7.7038 11.562 7.62163 11.7603 7.45728 11.9205C7.29293 12.0806 7.08978 12.1605 6.84783 12.1599ZM1.71196 18C1.24117 18 0.838004 17.8365 0.50246 17.5094C0.166917 17.1824 -0.000569199 16.7897 1.45327e-06 16.3314V7.15411C1.45327e-06 6.69525 0.167773 6.30229 0.503316 5.97525C0.83886 5.6482 1.24174 5.48496 1.71196 5.48551H3.42391C3.66644 5.48551 3.86988 5.56561 4.03423 5.72579C4.19857 5.88598 4.28046 6.08399 4.27989 6.31981C4.27989 6.5562 4.19772 6.75448 4.03337 6.91467C3.86902 7.07485 3.66587 7.15467 3.42391 7.15411H1.71196V16.3314H11.9837V7.15411H10.2717C10.0292 7.15411 9.82577 7.07402 9.66142 6.91383C9.49708 6.75365 9.41519 6.55564 9.41576 6.31981C9.41576 6.08343 9.49793 5.88514 9.66228 5.72496C9.82663 5.56477 10.0298 5.48496 10.2717 5.48551H11.9837C12.4545 5.48551 12.8576 5.64904 13.1932 5.97608C13.5287 6.30313 13.6962 6.6958 13.6956 7.15411V16.3314C13.6956 16.7903 13.5279 17.1832 13.1923 17.5103C12.8568 17.8373 12.4539 18.0006 11.9837 18H1.71196Z" />
</svg>
